HIERARCHY
ROOT joint_Root
{
	OFFSET 0.0 0.0 0.0
	CHANNELS 6 Xposition Yposition Zposition Zrotation Xrotation Yrotation 
	JOINT Hips
	{
		OFFSET 4.5925 91.4895 -427.239
		CHANNELS 6 Xposition Yposition Zposition Zrotation Xrotation Yrotation 
		JOINT Spine
		{
			OFFSET 15.7357 0.0 0.0
			CHANNELS 6 Xposition Yposition Zposition Zrotation Xrotation Yrotation 
			JOINT Chest
			{
				OFFSET 8.98455 -0.406207 0.0
				CHANNELS 6 Xposition Yposition Zposition Zrotation Xrotation Yrotation 
				JOINT Neck
				{
					OFFSET 16.3773 0.0 0.0
					CHANNELS 6 Xposition Yposition Zposition Zrotation Xrotation Yrotation 
					JOINT Head
					{
						OFFSET 6.45672 0.0 0.0
						CHANNELS 6 Xposition Yposition Zposition Zrotation Xrotation Yrotation 
						End Site
						{
							OFFSET 0.0 0.0 0.0
						}
					}
				}
				JOINT Shoulder_L
				{
					OFFSET 12.9942 -0.242716 4.98039
					CHANNELS 6 Xposition Yposition Zposition Zrotation Xrotation Yrotation 
					JOINT UpperArm_L
					{
						OFFSET 5.34809 0.0 0.0
						CHANNELS 6 Xposition Yposition Zposition Zrotation Xrotation Yrotation 
						JOINT LowerArm_L
						{
							OFFSET 24.3286 1.87007e-05 0.0
							CHANNELS 6 Xposition Yposition Zposition Zrotation Xrotation Yrotation 
							JOINT Hand_L
							{
								OFFSET 22.2916 0.0 0.0
								CHANNELS 6 Xposition Yposition Zposition Zrotation Xrotation Yrotation 
								End Site
								{
									OFFSET 0.0 0.0 0.0
								}
							}
						}
					}
				}
				JOINT Shoulder_R
				{
					OFFSET 12.9945 -0.242716 -4.98039
					CHANNELS 6 Xposition Yposition Zposition Zrotation Xrotation Yrotation 
					JOINT UpperArm_R
					{
						OFFSET -5.34813 0.0 0.0
						CHANNELS 6 Xposition Yposition Zposition Zrotation Xrotation Yrotation 
						JOINT LowerArm_R
						{
							OFFSET -24.3289 0.000322201 0.0
							CHANNELS 6 Xposition Yposition Zposition Zrotation Xrotation Yrotation 
							JOINT Hand_R
							{
								OFFSET -22.2915 -0.000108084 0.0
								CHANNELS 6 Xposition Yposition Zposition Zrotation Xrotation Yrotation 
								End Site
								{
									OFFSET 0.0 0.0 0.0
								}
							}
						}
					}
				}
			}
		}
		JOINT UpperLeg_L
		{
			OFFSET -2.19248 -6.46944 0.0
			CHANNELS 6 Xposition Yposition Zposition Zrotation Xrotation Yrotation 
			JOINT LowerLeg_L
			{
				OFFSET 39.0811 0.0 -1.23785e-05
				CHANNELS 6 Xposition Yposition Zposition Zrotation Xrotation Yrotation 
				JOINT Foot_L
				{
					OFFSET 40.9854 0.0 -1.26872e-05
					CHANNELS 6 Xposition Yposition Zposition Zrotation Xrotation Yrotation 
					JOINT Toes_L
					{
						OFFSET 11.7543 0.0 0.0
						CHANNELS 6 Xposition Yposition Zposition Zrotation Xrotation Yrotation 
						End Site
						{
							OFFSET 0.0 0.0 0.0
						}
					}
				}
			}
		}
		JOINT UpperLeg_R
		{
			OFFSET -2.19251 6.46944 0.0
			CHANNELS 6 Xposition Yposition Zposition Zrotation Xrotation Yrotation 
			JOINT LowerLeg_R
			{
				OFFSET -39.0811 -0.00228153 -0.0401928
				CHANNELS 6 Xposition Yposition Zposition Zrotation Xrotation Yrotation 
				JOINT Foot_R
				{
					OFFSET -40.9854 0.0 0.0
					CHANNELS 6 Xposition Yposition Zposition Zrotation Xrotation Yrotation 
					JOINT Toes_R
					{
						OFFSET -11.7543 0.0 0.0
						CHANNELS 6 Xposition Yposition Zposition Zrotation Xrotation Yrotation 
						End Site
						{
							OFFSET 0.0 0.0 0.0
						}
					}
				}
			}
		}
	}
}
MOTION
Frames:	6
Frame Time:	0.0333333
0.000000 0.000000 0.000000 0.000000 0.000000 -0.000000 1.497020 90.344300 1.926610 89.124600 -6.108710 12.206700 15.735700 0.000005 -0.000001 97.591500 82.298700 -101.312000 8.984550 -0.406207 -0.000000 7.582330 2.032540 -7.567830 16.377300 -0.000001 -0.000001 16.256700 2.316050 -3.015500 6.456720 -0.000001 -0.000000 5.802400 4.530970 -18.545400 12.994200 -0.242716 4.980390 -92.083000 6.033510 -70.913000 5.348090 -0.000007 -0.000001 -58.610500 29.938800 -11.135600 24.328600 0.000019 0.000005 8.582300 26.464700 -18.708800 22.291600 -0.000001 0.000005 11.577100 5.197230 2.788580 12.994500 -0.242716 -4.980390 90.374600 -1.398840 -75.006400 -5.348130 -0.000001 -0.000004 -43.000500 -49.063300 -54.972800 -24.328900 0.000322 -0.000009 -4.117360 -4.668620 -41.488800 -22.291500 -0.000108 -0.000004 26.196700 5.369910 -1.983530 -2.192480 -6.469440 -0.000000 -174.829000 -14.621600 4.066110 39.081100 -0.000007 -0.000012 -0.186848 0.301697 31.771200 40.985400 -0.000006 -0.000013 1.416530 3.324190 -73.364400 11.754300 -0.000000 0.000003 -0.000237 -0.002137 -16.657800 -2.192510 6.469440 -0.000001 171.974000 18.507000 -176.287000 -39.081100 -0.002282 -0.040193 -0.166150 0.277337 31.424500 -40.985400 0.000008 0.000006 2.477110 12.496400 -72.027100 -11.754300 -0.000006 -0.000006 -0.002372 -0.033282 -17.926500
0.000000 0.000000 0.000000 0.000000 0.000000 -0.000000 1.609870 90.328800 1.964560 89.099800 -6.354380 12.340300 15.735700 0.000005 -0.000001 97.243700 82.254600 -101.000000 8.984550 -0.406207 -0.000000 7.679670 1.947970 -7.636140 16.377300 -0.000001 -0.000001 16.205300 2.394220 -3.376230 6.456720 -0.000001 -0.000000 5.748620 4.718670 -18.521100 12.994200 -0.242716 4.980390 -92.082800 6.047980 -70.956600 5.348090 -0.000007 -0.000001 -58.557200 29.764800 -11.107100 24.328600 0.000019 0.000005 8.550290 26.192400 -18.810100 22.291600 -0.000001 0.000005 11.712200 5.201290 2.686940 12.994500 -0.242716 -4.980390 90.283800 -1.072790 -75.183700 -5.348130 -0.000001 -0.000004 -44.269200 -48.813700 -53.538900 -24.328900 0.000322 -0.000009 -5.469930 -6.908310 -38.522800 -22.291500 -0.000108 -0.000004 25.231900 5.352460 -1.450160 -2.192480 -6.469440 -0.000000 -174.835000 -14.714700 4.248300 39.081100 -0.000007 -0.000012 -0.186338 0.300466 31.806000 40.985400 -0.000006 -0.000013 1.444210 3.151680 -73.446200 11.754300 -0.000000 0.000003 -0.000265 -0.002348 -16.665400 -2.192510 6.469440 -0.000001 171.931000 18.296200 -176.202000 -39.081100 -0.002282 -0.040193 -0.161194 0.268691 31.475100 -40.985400 0.000008 0.000006 2.470150 12.552600 -72.040200 -11.754300 -0.000006 -0.000006 -0.002333 -0.032809 -17.907200
0.000000 0.000000 0.000000 0.000000 0.000000 -0.000000 1.714600 90.303700 1.988430 89.076600 -6.743290 12.476500 15.735700 0.000005 -0.000001 96.890600 82.200200 -100.661000 8.984550 -0.406207 -0.000000 7.796630 1.862530 -7.661480 16.377300 -0.000001 -0.000001 16.072400 2.418150 -3.640260 6.456720 -0.000001 -0.000000 5.762650 4.825680 -18.505900 12.994200 -0.242716 4.980390 -92.076600 6.051150 -71.018900 5.348090 -0.000007 -0.000001 -58.619700 29.719000 -11.138100 24.328600 0.000019 0.000005 8.553690 26.188000 -18.819900 22.291600 -0.000001 0.000005 11.657600 5.201090 2.691920 12.994500 -0.242716 -4.980390 90.240800 -0.925335 -75.411000 -5.348130 -0.000001 -0.000004 -46.138000 -48.754500 -53.085100 -24.328900 0.000322 -0.000009 -6.491290 -9.176150 -35.505600 -22.291500 -0.000108 -0.000004 24.657600 5.326190 -0.673132 -2.192480 -6.469440 -0.000000 -174.798000 -14.939500 4.419290 39.081100 -0.000007 -0.000012 -0.187092 0.300694 31.890200 40.985400 -0.000006 -0.000013 1.471470 3.000730 -73.549500 11.754300 -0.000000 0.000003 -0.000254 -0.002261 -16.662200 -2.192510 6.469440 -0.000001 171.910000 17.933900 -176.173000 -39.081100 -0.002282 -0.040193 -0.165448 0.274593 31.572300 -40.985400 0.000008 0.000006 2.424220 12.631400 -72.052700 -11.754300 -0.000006 -0.000006 -0.002515 -0.034991 -17.996000
0.000000 0.000000 0.000000 0.000000 0.000000 -0.000000 1.828700 90.289500 1.987020 89.035200 -7.268200 12.563100 15.735700 0.000005 -0.000001 96.675500 82.167300 -100.439000 8.984550 -0.406207 -0.000000 7.866960 1.809840 -7.644610 16.377300 -0.000001 -0.000001 16.026100 2.383640 -3.809340 6.456720 -0.000001 -0.000000 5.756980 4.832530 -18.497100 12.994200 -0.242716 4.980390 -92.050300 6.018250 -71.147100 5.348090 -0.000007 -0.000001 -58.804200 29.831500 -11.216300 24.328600 0.000019 0.000005 8.487260 26.186200 -18.683000 22.291600 -0.000001 0.000005 11.608300 5.201510 2.681430 12.994500 -0.242716 -4.980390 90.216000 -0.841119 -75.598600 -5.348130 -0.000001 -0.000004 -48.272700 -48.787900 -53.440500 -24.328900 0.000322 -0.000009 -6.674910 -10.533700 -32.621900 -22.291500 -0.000108 -0.000004 24.419300 5.295910 0.186909 -2.192480 -6.469440 -0.000000 -174.764000 -15.233500 4.557750 39.081100 -0.000007 -0.000012 -0.184401 0.295855 31.934900 40.985400 -0.000006 -0.000013 1.478750 2.752390 -73.625100 11.754300 -0.000000 0.000003 -0.000234 -0.002112 -16.656800 -2.192510 6.469440 -0.000001 171.964000 17.553900 -176.239000 -39.081100 -0.002282 -0.040193 -0.158541 0.262466 31.658700 -40.985400 0.000008 0.000006 2.504090 12.746200 -72.049600 -11.754300 -0.000006 -0.000006 -0.002531 -0.035178 -18.003600
0.000000 0.000000 0.000000 0.000000 0.000000 -0.000000 1.939380 90.280600 1.960340 89.004000 -7.879330 12.585000 15.735700 0.000005 -0.000001 96.480700 82.176000 -100.224000 8.984550 -0.406207 -0.000000 7.853320 1.755680 -7.600030 16.377300 -0.000001 -0.000001 16.083500 2.345700 -3.931360 6.456720 -0.000001 -0.000000 5.827100 4.804150 -18.490300 12.994200 -0.242716 4.980390 -92.019500 5.975710 -71.288700 5.348090 -0.000007 -0.000001 -59.073000 29.980300 -11.243600 24.328600 0.000019 0.000005 8.417050 26.146900 -18.561100 22.291600 -0.000001 0.000005 11.599800 5.204170 2.614520 12.994500 -0.242716 -4.980390 90.216400 -0.852880 -75.760700 -5.348130 -0.000001 -0.000004 -50.235100 -48.767500 -54.183000 -24.328900 0.000322 -0.000009 -6.345800 -10.947300 -30.349300 -22.291500 -0.000108 -0.000004 24.469100 5.269080 0.922528 -2.192480 -6.469440 -0.000000 -174.771000 -15.505500 4.616130 39.081100 -0.000007 -0.000012 -0.185278 0.296929 31.963700 40.985400 -0.000006 -0.000013 1.449480 2.402370 -73.672000 11.754300 -0.000000 0.000003 -0.000228 -0.002069 -16.655300 -2.192510 6.469440 -0.000001 172.031000 17.133800 -176.397000 -39.081100 -0.002282 -0.040193 -0.156920 0.259149 31.726400 -40.985400 0.000008 0.000006 2.535660 12.965100 -72.001200 -11.754300 -0.000006 -0.000006 -0.002381 -0.033388 -17.930800
0.000000 0.000000 0.000000 0.000000 0.000000 -0.000000 2.042730 90.273000 1.943070 88.950400 -8.568260 12.617800 15.735700 0.000005 -0.000001 96.317600 82.197200 -100.023000 8.984550 -0.406207 -0.000000 7.813680 1.708340 -7.521060 16.377300 -0.000001 -0.000001 16.202500 2.278190 -3.939050 6.456720 -0.000001 -0.000000 5.934630 4.757790 -18.539100 12.994200 -0.242716 4.980390 -91.986200 5.909310 -71.384200 5.348090 -0.000007 -0.000001 -59.415600 30.140900 -11.207500 24.328600 0.000019 0.000005 8.425340 26.078500 -18.620600 22.291600 -0.000001 0.000005 11.514900 5.204570 2.604500 12.994500 -0.242716 -4.980390 90.224600 -0.889905 -75.835200 -5.348130 -0.000001 -0.000004 -51.595500 -48.548200 -55.010100 -24.328900 0.000322 -0.000009 -6.215450 -11.263000 -29.140200 -22.291500 -0.000108 -0.000004 24.489900 5.249110 1.456050 -2.192480 -6.469440 -0.000000 -174.718000 -15.863300 4.711660 39.081100 -0.000007 -0.000012 -0.184782 0.295863 31.987200 40.985400 -0.000006 -0.000013 1.419170 2.077120 -73.726700 11.754300 -0.000000 0.000003 -0.000257 -0.002283 -16.663000 -2.192510 6.469440 -0.000001 172.129000 16.665500 -176.536000 -39.081100 -0.002282 -0.040193 -0.158653 0.261529 31.767800 -40.985400 0.000008 0.000006 2.530100 13.189200 -71.928500 -11.754300 -0.000006 -0.000006 -0.002502 -0.034835 -17.989700
